#N canvas 0 90 1419 726 10;
#X obj 101 101 cnv 15 148 148 empty empty empty 20 12 0 14 -128992
-66577 0;
#X obj 107 142 vsl 15 100 1 127 0 1 empty empty Freq -3 -9 0 10 -99865
-1 -1 7779 1;
#X obj 134 142 vsl 15 100 0.1 10 0 0 empty empty Res -2 -9 0 10 -99865
-1 -1 0 1;
#X obj 387 22 inlet~ signal;
#X obj 32 35 loadbang;
#X obj 378 351 outlet~;
#X obj 156 143 hradio 15 1 0 4 empty empty Type 0 -8 0 10 -99865 -1
-1 0;
#N canvas 0 92 1280 942 filter_selector 1;
#X obj 36 73 inlet filter;
#X obj 289 210 lop~;
#X obj 402 208 hip~;
#X obj 475 204 bp~ 220 1;
#X obj 319 345 *~;
#X obj 337 306 pack f 50;
#X obj 337 323 line~;
#X obj 403 348 *~;
#X obj 421 308 pack f 50;
#X obj 421 325 line~;
#X obj 489 349 *~;
#X obj 507 309 pack f 50;
#X obj 507 326 line~;
#X obj 286 52 inlet~ signal;
#X obj 443 54 inlet freq;
#X obj 443 149 mtof;
#X obj 808 56 inlet res;
#X obj 455 458 outlet~;
#X obj 805 146 pack f 50;
#X obj 572 350 *~;
#X obj 590 310 pack f 50;
#X obj 590 327 line~;
#X msg 71 453 1;
#X msg 70 476 0;
#X msg 70 501 0;
#X msg 70 523 0;
#X msg 115 501 0;
#X msg 115 524 0;
#X msg 117 453 0;
#X msg 116 477 1;
#X msg 238 522 1;
#X msg 173 500 1;
#X msg 171 475 0;
#X msg 240 473 0;
#X msg 173 452 0;
#X msg 242 451 0;
#X msg 172 523 0;
#X msg 239 500 0;
#X obj 45 159 sel 0 1 2 3;
#X obj 16 208 t b b b b;
#X obj 78 238 t b b b b;
#X obj 134 267 t b b b b;
#X obj 193 297 t b b b b;
#X floatatom 36 95 5 0 0 0 - - -, f 5;
#X floatatom 443 76 5 0 0 0 - - -, f 5;
#X floatatom 808 78 5 0 0 0 - - -, f 5;
#X obj 595 199 *~;
#X obj 582 54 inlet lfo_freq;
#X obj 679 56 inlet lfo_amount;
#X obj 443 149 mtof;
#X obj 443 149 mtof;
#X obj 683 107 pack f 50;
#X floatatom 679 78 5 0 0 0 - - -, f 5;
#X floatatom 582 76 5 0 0 0 - - -, f 5;
#X obj 683 129 mtof;
#X floatatom 683 151 5 0 0 0 - - -, f 5;
#X obj 589 231 +~;
#X obj 589 142 osc~;
#X obj 443 95 pack f 50;
#X obj 867 0;
#X obj 594 262 vcf~ 220 1;
#X connect 0 0 43 0;
#X connect 1 0 4 0;
#X connect 2 0 7 0;
#X connect 3 0 10 0;
#X connect 4 0 17 0;
#X connect 5 0 6 0;
#X connect 6 0 4 1;
#X connect 7 0 17 0;
#X connect 8 0 9 0;
#X connect 9 0 7 1;
#X connect 10 0 17 0;
#X connect 11 0 12 0;
#X connect 12 0 10 1;
#X connect 13 0 1 0;
#X connect 13 0 2 0;
#X connect 13 0 3 0;
#X connect 13 0 60 0;
#X connect 14 0 44 0;
#X connect 15 0 1 1;
#X connect 15 0 2 1;
#X connect 15 0 3 1;
#X connect 15 0 56 0;
#X connect 16 0 45 0;
#X connect 18 0 3 2;
#X connect 18 0 60 2;
#X connect 19 0 17 0;
#X connect 20 0 21 0;
#X connect 21 0 19 1;
#X connect 22 0 5 0;
#X connect 23 0 8 0;
#X connect 24 0 11 0;
#X connect 25 0 20 0;
#X connect 26 0 11 0;
#X connect 27 0 20 0;
#X connect 28 0 5 0;
#X connect 29 0 8 0;
#X connect 30 0 20 0;
#X connect 31 0 11 0;
#X connect 32 0 8 0;
#X connect 33 0 8 0;
#X connect 34 0 5 0;
#X connect 35 0 5 0;
#X connect 36 0 20 0;
#X connect 37 0 11 0;
#X connect 38 0 39 0;
#X connect 38 1 40 0;
#X connect 38 2 41 0;
#X connect 38 3 42 0;
#X connect 39 0 22 0;
#X connect 39 1 23 0;
#X connect 39 2 24 0;
#X connect 39 3 25 0;
#X connect 40 0 28 0;
#X connect 40 1 29 0;
#X connect 40 2 26 0;
#X connect 40 3 27 0;
#X connect 41 0 34 0;
#X connect 41 1 32 0;
#X connect 41 2 31 0;
#X connect 41 3 36 0;
#X connect 42 0 35 0;
#X connect 42 1 33 0;
#X connect 42 2 37 0;
#X connect 42 3 30 0;
#X connect 43 0 38 0;
#X connect 44 0 58 0;
#X connect 45 0 18 0;
#X connect 47 0 53 0;
#X connect 48 0 52 0;
#X connect 51 0 54 0;
#X connect 52 0 51 0;
#X connect 53 0 57 0;
#X connect 54 0 55 0;
#X connect 55 0 46 1;
#X connect 56 0 60 1;
#X connect 57 0 46 0;
#X connect 58 0 15 0;
#X restore 322 317 pd filter_selector;
#X msg 57 78 0;
#X obj 101 101 cnv 15 148 25 empty empty Filter 10 12 0 18 -1 -191407
0;
#X obj 261 45 unpack f f f f f;
#N canvas 0 50 1221 759 v 0;
#X obj 120 52 inlet;
#X floatatom 120 74 5 0 0 0 - - -, f 5;
#X obj 118 109 sel -1;
#X obj 141 220 f;
#X obj 192 185 delay 10;
#X floatatom 120 254 5 0 0 0 - - -, f 5;
#X obj 118 144 t f b;
#X obj 119 281 outlet;
#X connect 0 0 1 0;
#X connect 1 0 2 0;
#X connect 2 1 6 0;
#X connect 3 0 5 0;
#X connect 3 0 2 1;
#X connect 4 0 3 0;
#X connect 5 0 7 0;
#X connect 6 0 3 1;
#X connect 6 1 4 0;
#X restore 303 93 pd v;
#X obj 252 13;
#X msg 106 63 100;
#X connect 1 0 7 2;
#X connect 2 0 7 5;
#X connect 3 0 7 1;
#X connect 4 0 8 0;
#X connect 4 0 13 0;
#X connect 6 0 7 0;
#X connect 7 0 5 0;
#X connect 8 0 6 0;
#X connect 8 0 2 0;
#X connect 10 1 11 0;
#X connect 12 0 10 0;
#X connect 13 0 1 0;
#X coords 0 -1 1 1 150 150 2 100 100;
