#N canvas 302 127 396 374 10;
#X obj 12 11 cnv 15 370 350 empty empty empty 20 12 0 14 -2956 -66577
0;
#X text 17 339 http://audioprogrammingblog.wordpress.com/;
#X text 21 15 [Simple Pd portamento];
#N canvas 528 190 450 300 portamento 0;
#X obj 112 64 inlet;
#X obj 182 64 inlet;
#X obj 265 64 inlet;
#X obj 112 206 outlet;
#X obj 182 206 outlet;
#X obj 112 166 line;
#X obj 182 166 line;
#X text 113 41 note;
#X text 181 41 velocity;
#X msg 321 96 500;
#X obj 324 66 loadbang;
#X text 259 43 portamento speed (ms);
#X obj 112 129 pack 0 0;
#X obj 182 129 pack 0 0;
#X connect 0 0 12 0;
#X connect 1 0 13 0;
#X connect 2 0 13 1;
#X connect 2 0 12 1;
#X connect 5 0 3 0;
#X connect 6 0 4 0;
#X connect 9 0 13 1;
#X connect 9 0 12 1;
#X connect 10 0 9 0;
#X connect 12 0 5 0;
#X connect 13 0 6 0;
#X restore 112 141 pd portamento;
#X obj 249 39 vsl 15 128 1 3000 0 0 empty empty empty 0 -9 0 10 -262144
-1 -1 1000 1;
#X obj 121 259 *~ 1;
#X obj 110 291 dac~;
#X obj 112 235 phasor~;
#X obj 112 186 mtof;
#X obj 187 176 / 127;
#X text 269 89 portamento speed;
#X floatatom 249 175 5 0 0 1 :ms - -;
#X obj 112 111 notein;
#X floatatom 112 164 5 0 0 1 :note - -;
#X floatatom 112 211 6 0 0 1 :frequency - -;
#X connect 3 0 13 0;
#X connect 3 1 9 0;
#X connect 4 0 3 2;
#X connect 4 0 11 0;
#X connect 5 0 6 0;
#X connect 5 0 6 1;
#X connect 7 0 5 0;
#X connect 8 0 14 0;
#X connect 9 0 5 1;
#X connect 12 0 3 0;
#X connect 12 1 3 1;
#X connect 13 0 8 0;
#X connect 14 0 7 0;
