#N canvas 292 375 877 544 10;
#X obj 101 101 cnv 15 148 148 empty empty adsr 20 12 0 14 -128992 -66577
0;
#X obj 109 183 hsl 128 15 0.01 1 0 0 \$0-dec-send \$0-dec-recv Decay:0.399998
4 8 0 10 -99865 -1 -1 5003 1;
#X obj 109 205 hsl 128 15 0.01 1 0 0 \$0-sus-send \$0-sus-recv Sustain:0.799973
4 8 0 10 -99865 -1 -1 10134 1;
#X obj 110 229 hsl 128 15 0.01 1 0 0 \$0-rel-send \$0-rel-recv Release:0.399998
4 8 0 10 -99865 -1 -1 5003 1;
#X obj 109 163 hsl 128 15 0.01 1 0 0 \$0-att-send \$0-att-recv Attack:0.228268
4 8 0 10 -99865 -1 -1 2800 1;
#N canvas 346 172 634 581 adsr 0;
#X obj 24 16 inlet velocity;
#X floatatom 24 46 5 0 0 0 - - -;
#X floatatom 129 53 5 1000 5000 0 - - -;
#X obj 130 17 inlet duration;
#X floatatom 237 48 5 0 0 0 - - -;
#X floatatom 333 49 5 0 0 0 - - -;
#X obj 237 18 inlet attack;
#X obj 333 19 inlet decay;
#X floatatom 423 49 5 0 0 0 - - -;
#X obj 423 20 inlet sustain;
#X floatatom 523 50 5 0 0 0 - - -;
#X obj 523 21 inlet release;
#X obj 24 76 sel 0;
#X msg 24 198 0;
#X obj 93 154 f;
#X obj 93 130 delay 10;
#X msg 57 186 1;
#X obj 235 103 *;
#X obj 236 73 t b f;
#X floatatom 235 131 5 0 0 0 - - -;
#X obj 332 102 *;
#X obj 333 72 t b f;
#X floatatom 332 130 5 0 0 0 - - -;
#X obj 522 111 *;
#X obj 523 81 t b f;
#X floatatom 522 139 5 0 0 0 - - -;
#X obj 93 180 / 127;
#X obj 422 108 *;
#X obj 423 78 t b f;
#X floatatom 422 136 5 0 0 0 - - -;
#X obj 135 476 line~;
#X obj 136 511 outlet~;
#X floatatom 93 246 5 0 0 0 - - -;
#X obj 190 380 pack f f;
#X obj 262 380 delay 10;
#X obj 336 382 pack f f;
#X obj 342 246 f;
#X obj 465 383 pack f f;
#X obj 341 287 spigot 0;
#X obj 190 330 t f b;
#X obj 61 99 t b b b f;
#X msg 113 393 0 10;
#X connect 0 0 1 0;
#X connect 1 0 12 0;
#X connect 2 0 17 0;
#X connect 2 0 20 0;
#X connect 2 0 23 0;
#X connect 2 0 22 0;
#X connect 3 0 2 0;
#X connect 4 0 18 0;
#X connect 5 0 21 0;
#X connect 6 0 4 0;
#X connect 7 0 5 0;
#X connect 8 0 28 0;
#X connect 9 0 8 0;
#X connect 10 0 24 0;
#X connect 11 0 10 0;
#X connect 12 0 13 0;
#X connect 12 1 40 0;
#X connect 13 0 37 0;
#X connect 13 0 38 1;
#X connect 14 0 26 0;
#X connect 15 0 14 0;
#X connect 16 0 38 1;
#X connect 17 0 19 0;
#X connect 18 0 17 0;
#X connect 18 1 17 1;
#X connect 19 0 34 1;
#X connect 19 0 33 1;
#X connect 20 0 22 0;
#X connect 21 0 20 0;
#X connect 21 1 20 1;
#X connect 22 0 35 1;
#X connect 23 0 25 0;
#X connect 24 0 23 0;
#X connect 24 1 23 1;
#X connect 25 0 37 1;
#X connect 26 0 32 0;
#X connect 27 0 29 0;
#X connect 28 0 27 0;
#X connect 28 1 27 1;
#X connect 29 0 36 1;
#X connect 30 0 31 0;
#X connect 32 0 27 0;
#X connect 32 0 39 0;
#X connect 33 0 30 0;
#X connect 34 0 36 0;
#X connect 35 0 30 0;
#X connect 36 0 38 0;
#X connect 37 0 30 0;
#X connect 38 0 35 0;
#X connect 39 0 33 0;
#X connect 39 1 34 0;
#X connect 40 0 16 0;
#X connect 40 1 41 0;
#X connect 40 2 15 0;
#X connect 40 3 14 1;
#X connect 41 0 30 0;
#X restore 389 228 pd adsr;
#X obj 108 143 nbx 5 14 1000 5000 0 0 empty empty Duration 0 -8 0 10
-99865 -1 -1 1000 256;
#X obj 364 297 *~;
#X obj 365 325 outlet~;
#N canvas -2 56 1280 942 send-recieve 0;
#X obj 54 15 r \$0-att-send;
#X msg 54 45 label Attack:\$1;
#X obj 55 73 s \$0-att-recv;
#X obj 165 15 r \$0-dec-send;
#X obj 166 73 s \$0-dec-recv;
#X msg 165 45 label Decay:\$1;
#X obj 270 15 r \$0-sus-send;
#X obj 271 73 s \$0-sus-recv;
#X msg 270 45 label Sustain:\$1;
#X obj 408 18 r \$0-rel-send;
#X msg 408 48 label Release:\$1;
#X obj 409 76 s \$0-rel-recv;
#X connect 0 0 1 0;
#X connect 1 0 2 0;
#X connect 3 0 5 0;
#X connect 5 0 4 0;
#X connect 6 0 8 0;
#X connect 8 0 7 0;
#X connect 9 0 10 0;
#X connect 10 0 11 0;
#X restore 146 66 pd send-recieve;
#X obj 368 33 inlet~ signal;
#X obj 253 24 inlet MIDI;
#X obj 7 8 loadbang;
#X msg 9 147 0.1;
#X msg 27 177 0.4;
#X msg 47 201 0.8;
#X msg 67 226 0.4;
#X obj 253 51 unpack f f f f f;
#N canvas 0 50 1221 759 v 0;
#X obj 120 52 inlet;
#X floatatom 120 74 5 0 0 0 - - -;
#X obj 118 109 sel -1;
#X obj 141 220 f;
#X obj 192 185 delay 10;
#X floatatom 120 254 5 0 0 0 - - -;
#X obj 118 144 t f b;
#X obj 119 281 outlet;
#X connect 0 0 1 0;
#X connect 1 0 2 0;
#X connect 2 1 6 0;
#X connect 3 0 5 0;
#X connect 3 0 2 1;
#X connect 4 0 3 0;
#X connect 5 0 7 0;
#X connect 6 0 3 1;
#X connect 6 1 4 0;
#X restore 280 105 pd v;
#X obj 101 101 cnv 15 148 25 empty empty Vol_Envelope 10 12 0 18 -1
-191407 0;
#X obj 505 32 inlet;
#X obj 542 36 inlet;
#X obj 579 36 inlet;
#X obj 616 37 inlet;
#X connect 1 0 5 3;
#X connect 2 0 5 4;
#X connect 3 0 5 5;
#X connect 4 0 5 2;
#X connect 5 0 7 1;
#X connect 6 0 5 1;
#X connect 7 0 8 0;
#X connect 10 0 7 0;
#X connect 11 0 17 0;
#X connect 12 0 13 0;
#X connect 12 0 14 0;
#X connect 12 0 15 0;
#X connect 12 0 16 0;
#X connect 12 0 6 0;
#X connect 13 0 4 0;
#X connect 14 0 1 0;
#X connect 15 0 2 0;
#X connect 16 0 3 0;
#X connect 17 1 18 0;
#X connect 18 0 5 0;
#X connect 20 0 4 0;
#X connect 21 0 1 0;
#X connect 22 0 2 0;
#X connect 23 0 3 0;
#X coords 0 -1 1 1 150 150 2 100 100;
