#N canvas 1640 194 781 404 10;
#X obj 190 353 outlet~;
#X obj 191 278 *~;
#X obj 250 278 *~;
#X floatatom 276 213 5 0 0 0 - - -, f 5;
#X floatatom 269 130 5 0 1 0 - - -, f 5;
#X floatatom 358 212 5 0 0 0 - - -, f 5;
#X obj 361 91 * -1;
#X floatatom 360 137 5 0 1 0 - - -, f 5;
#X obj 361 113 + 2;
#X obj 272 170 moses 1;
#X obj 114 56 inlet~;
#X obj 190 58 inlet~;
#X text 107 33 dry;
#X text 196 35 wet;
#X obj 359 171 moses 1;
#X obj 313 27 inlet;
#X obj 480 27 inlet mute;
#X obj 462 77 loadbang;
#X msg 469 127 0.989;
#X msg 484 100 0.15;
#X connect 1 0 0 0;
#X connect 2 0 0 0;
#X connect 3 0 2 1;
#X connect 4 0 9 0;
#X connect 5 0 1 1;
#X connect 6 0 8 0;
#X connect 7 0 14 0;
#X connect 8 0 7 0;
#X connect 9 0 3 0;
#X connect 10 0 1 0;
#X connect 11 0 2 0;
#X connect 14 0 5 0;
#X connect 15 0 4 0;
#X connect 15 0 6 0;
#X connect 16 0 2 1;
#X connect 17 0 18 0;
#X connect 17 0 19 0;
#X connect 18 0 14 0;
#X connect 19 0 3 0;
