#N canvas 235 124 1345 715 10;
#X obj 248 149 modules;
#N canvas 722 178 450 300 dsp_on 0;
#X obj 150 56 loadbang;
#X msg 149 88 1, f 5;
#X msg 149 119 delay 100;
#X msg 149 141 \; pd dsp 1;
#X connect 0 0 1 0;
#X connect 1 0 2 0;
#X connect 2 0 3 0;
#X restore 249 127 pd dsp_on;
#X obj 12 53 import mrpeach;
#X obj 138 57 import net;
#X floatatom 26 216 5 0 0 0 - - -, f 5;
#X obj 23 101 udpreceive 9001;
#X obj 25 133 unpackOSC;
#X obj 27 166 routeOSC /filter;
#X connect 5 0 6 0;
#X connect 6 0 7 0;
#X connect 7 0 4 0;
