#N canvas 64 410 1187 736 10;
#X obj 101 101 cnv 15 148 298 empty empty MIDI_IN 20 12 0 14 -128992
-1 0;
#X obj 108 179 hsl 128 15 0 127 0 0 \$0-note-send \$0-note-recv Note:36
3 8 0 10 -99865 -1 -1 3600 1;
#X obj 108 205 hsl 128 15 0 127 0 0 \$0-velocity-send \$0-velocity-recv
Velocity:0 3 8 0 10 -99865 -1 -1 0 1;
#N canvas 0 50 1280 942 send-recieve 0;
#X obj 13 23 r \$0-note-send;
#X msg 13 43 label Note:\$1;
#X obj 13 63 s \$0-note-recv;
#X obj 122 22 r \$0-velocity-send;
#X msg 122 42 label Velocity:\$1;
#X obj 122 62 s \$0-velocity-recv;
#X obj 257 21 r \$0-pbend-send;
#X obj 257 61 s \$0-pbend-recv;
#X msg 257 41 label PB:\$1;
#X obj 380 24 r \$0-mod-send;
#X msg 380 44 label Mod:\$1;
#X obj 380 65 s \$0-mod-recv;
#X obj 487 25 r \$0-glide-send;
#X msg 487 45 label Glide:\$1;
#X obj 487 66 s \$0-glide-recv;
#X connect 0 0 1 0;
#X connect 1 0 2 0;
#X connect 3 0 4 0;
#X connect 4 0 5 0;
#X connect 6 0 8 0;
#X connect 8 0 7 0;
#X connect 9 0 10 0;
#X connect 10 0 11 0;
#X connect 12 0 13 0;
#X connect 13 0 14 0;
#X restore 141 69 pd send-recieve;
#X floatatom 500 82 5 0 0 3 Note - -;
#X floatatom 549 82 5 0 0 3 Velocity - -;
#X floatatom 606 82 5 0 0 3 Channel - -;
#X obj 111 150 nbx 2 14 1 16 0 0 empty empty Channel 0 -8 0 10 -162280
-1 -1 1 256;
#X obj 576 168 sel 1;
#X msg 576 196 1;
#X floatatom 607 197 5 0 0 0 - - -;
#X obj 606 218 t b;
#X msg 607 241 0;
#X obj 500 271 spigot 1;
#X obj 543 302 spigot 1;
#X obj 328 33 loadbang;
#X obj 311 612 outlet;
#X obj 460 449 t b f;
#X obj 372 430 t b f;
#X obj 331 429 t b f;
#X floatatom 760 83 5 0 0 3 Channel - -;
#X floatatom 682 83 5 0 0 3 Value - -;
#X obj 760 173 sel 1;
#X msg 760 201 1;
#X floatatom 791 202 5 0 0 0 - - -;
#X obj 790 223 t b;
#X msg 791 246 0;
#X obj 682 276 spigot 1;
#X msg 391 78 8192;
#X floatatom 904 72 5 0 0 3 Channel - -;
#X floatatom 855 70 5 0 0 3 Value - -;
#X obj 877 175 sel 1;
#X msg 877 203 1;
#X floatatom 930 216 5 0 0 0 - - -;
#X obj 929 237 t b;
#X msg 930 260 0;
#X obj 855 263 spigot 1;
#X obj 862 37 ctlin 1;
#N canvas 343 292 450 310 notein 0;
#X obj 100 29 notein;
#X obj 98 126 stripnote;
#X obj 98 248 outlet;
#X obj 233 70 t b f;
#X obj 233 96 f;
#X obj 235 126 sel 0;
#X obj 233 149 f;
#X obj 232 174 sel -1;
#X msg 234 206 0;
#X obj 231 253 outlet;
#X obj 280 254 outlet;
#X connect 0 0 1 0;
#X connect 0 0 3 0;
#X connect 0 1 1 1;
#X connect 0 1 4 1;
#X connect 0 2 10 0;
#X connect 1 0 2 0;
#X connect 1 0 7 1;
#X connect 3 0 4 0;
#X connect 3 1 6 1;
#X connect 4 0 5 0;
#X connect 5 0 6 0;
#X connect 5 1 9 0;
#X connect 6 0 7 0;
#X connect 7 0 8 0;
#X connect 8 0 9 0;
#X restore 514 19 pd notein monophonic;
#X msg 455 79 12;
#X obj 312 585 pack f f f f f;
#X floatatom 688 135 5 0 0 2 Value - -;
#X obj 106 265 nbx 5 14 -1e+37 1e+37 0 0 empty empty Range 0 -8 0 10
-162280 -1 -1 12 256;
#X obj 414 442 t b f;
#X obj 200 265 bng 15 250 50 0 empty empty empty 17 7 0 10 -66577 -1
-1;
#X obj 108 232 hsl 128 15 1 500 0 0 \$0-glide-send \$0-glide-recv Glide:125.75
-2 8 0 10 -99865 -1 -1 3175 1;
#X obj 494 125 pack 0 0;
#X obj 501 206 line;
#X msg 318 75 100;
#X obj 109 299 hsl 128 15 0 16384 0 0 \$0-pbend-send \$0-pbend-recv
PB:8192 0 8 0 10 -99865 -1 -1 6350 1;
#X obj 108 331 hsl 128 15 0 127 0 0 \$0-mod-send \$0-mod-recv Mod:20
2 8 0 10 -99865 -1 -1 0 1;
#X obj 101 101 cnv 15 148 25 empty empty MIDI 10 12 0 18 -1 -191407
0;
#X obj -34 24 inlet glide;
#X obj -27 278 inlet bend;
#X obj 708 48 *bendin;
#X connect 1 0 40 0;
#X connect 2 0 19 0;
#X connect 4 0 46 0;
#X connect 5 0 14 0;
#X connect 6 0 8 0;
#X connect 7 0 8 1;
#X connect 7 0 22 1;
#X connect 7 0 31 1;
#X connect 8 0 9 0;
#X connect 8 1 10 0;
#X connect 9 0 13 1;
#X connect 9 0 14 1;
#X connect 10 0 11 0;
#X connect 11 0 12 0;
#X connect 12 0 13 1;
#X connect 12 0 14 1;
#X connect 13 0 1 0;
#X connect 14 0 2 0;
#X connect 15 0 7 0;
#X connect 15 0 28 0;
#X connect 15 0 39 0;
#X connect 15 0 48 0;
#X connect 17 0 40 0;
#X connect 17 1 40 4;
#X connect 18 0 40 0;
#X connect 18 1 40 2;
#X connect 19 0 40 0;
#X connect 19 1 40 1;
#X connect 20 0 22 0;
#X connect 21 0 27 0;
#X connect 22 0 23 0;
#X connect 22 1 24 0;
#X connect 23 0 27 1;
#X connect 24 0 25 0;
#X connect 25 0 26 0;
#X connect 26 0 27 1;
#X connect 27 0 49 0;
#X connect 28 0 49 0;
#X connect 29 0 31 0;
#X connect 30 0 36 0;
#X connect 31 0 32 0;
#X connect 31 1 33 0;
#X connect 32 0 36 1;
#X connect 33 0 34 0;
#X connect 34 0 35 0;
#X connect 35 0 36 1;
#X connect 36 0 50 0;
#X connect 37 0 30 0;
#X connect 37 1 29 0;
#X connect 38 0 4 0;
#X connect 38 1 5 0;
#X connect 38 2 6 0;
#X connect 39 0 42 0;
#X connect 40 0 16 0;
#X connect 42 0 43 0;
#X connect 43 0 40 0;
#X connect 43 1 40 3;
#X connect 44 0 28 0;
#X connect 45 0 46 1;
#X connect 46 0 47 0;
#X connect 47 0 13 0;
#X connect 48 0 45 0;
#X connect 49 0 18 0;
#X connect 50 0 17 0;
#X connect 52 0 45 0;
#X connect 53 0 49 0;
#X connect 54 0 21 0;
#X connect 54 1 20 0;
#X coords 0 -1 1 1 150 300 2 100 100;
