#N canvas 0 94 640 386 10;
#X declare -lib mrpeach;
#X obj -153 528 midi_in;
#X obj 481 102 effects_module;
#X obj 870 106 master_output;
#X obj -206 47 import mrpeach;
#X obj -208 459 udpreceive 9001;
#X obj -208 482 unpackOSC;
#N canvas 268 116 450 300 dsp_on 0;
#X obj 150 56 loadbang;
#X msg 150 78 1;
#X msg 150 104 \; pd dsp 1;
#X connect 0 0 1 0;
#X connect 1 0 2 0;
#X restore -114 48 pd dsp_on;
#X obj 418 746 adsr;
#X obj 78 925 routeOSC /type /freq /res;
#X obj 762 737 mixer;
#X obj 436 926 routeOSC /a /d /s /r;
#X obj 735 928 routeOSC /osc1 /osc2 /osc3;
#X obj 46 465 routeOSC /type /octave /semi /cents /pwm /on;
#X obj 339 467 routeOSC /type /octave /semi /cents /pwm /on;
#X obj 696 469 routeOSC /type /octave /semi /cents /pwm /on;
#X obj 99 541 oscillator_carrier_1;
#X obj 747 535 oscillator_carrier_3;
#X obj 129 733 filter_module;
#X obj -98 426 routeOSC /glide /bend /mastervol;
#X obj 101 101 cnv 15 298 298 empty empty empty 20 12 0 14 -66577 -66577
0;
#X obj 423 542 oscillator_carrier_2;
#X obj 387 60 routeOSC /time /feedback /wet;
#X obj -200 892 routeOSC /filter /mix /osc1 /osc2 /osc3 /env /master
/fx;
#X obj 128 416 loadbang;
#X msg 128 441 1;
#X obj 513 18 routeOSC /speed /depth /feedback /wet;
#X obj 131 31 routeOSC /delay /chorus;
#X connect 0 0 7 0;
#X connect 0 0 15 0;
#X connect 0 0 16 0;
#X connect 0 0 20 0;
#X connect 1 0 2 0;
#X connect 4 0 5 0;
#X connect 5 0 22 0;
#X connect 7 0 17 0;
#X connect 8 0 17 1;
#X connect 8 1 17 2;
#X connect 8 2 17 3;
#X connect 9 0 7 1;
#X connect 10 0 7 2;
#X connect 10 1 7 3;
#X connect 10 2 7 4;
#X connect 10 3 7 5;
#X connect 11 0 9 3;
#X connect 11 1 9 4;
#X connect 11 2 9 5;
#X connect 12 0 15 1;
#X connect 12 1 15 2;
#X connect 12 2 15 3;
#X connect 12 3 15 4;
#X connect 12 4 15 5;
#X connect 13 0 20 1;
#X connect 13 1 20 2;
#X connect 13 2 20 3;
#X connect 13 3 20 4;
#X connect 13 4 20 5;
#X connect 14 0 16 1;
#X connect 14 1 16 2;
#X connect 14 2 16 3;
#X connect 14 3 16 4;
#X connect 14 4 16 5;
#X connect 15 0 9 0;
#X connect 16 0 9 2;
#X connect 17 0 1 0;
#X connect 18 0 0 0;
#X connect 18 1 0 1;
#X connect 18 2 2 1;
#X connect 20 0 9 1;
#X connect 21 0 1 1;
#X connect 21 1 1 2;
#X connect 21 2 1 3;
#X connect 22 0 8 0;
#X connect 22 1 11 0;
#X connect 22 2 12 0;
#X connect 22 3 13 0;
#X connect 22 4 14 0;
#X connect 22 5 10 0;
#X connect 22 6 18 0;
#X connect 22 7 26 0;
#X connect 23 0 24 0;
#X connect 24 0 15 1;
#X connect 26 0 21 0;
#X connect 26 1 25 0;
#X coords 0 -1 1 1 300 300 1 100 100;
