#N canvas 162 239 1107 526 10;
#X obj 132 202 dac~;
#N canvas 0 50 450 250 (subpatch) 0;
#X array display 100 float 2;
#X coords 0 1 100 -1 200 140 1 0 0;
#X restore 315 16 graph;
#X obj 231 200 tabwrite~ display;
#X obj 230 169 metro 100;
#X obj 230 144 tgl 8 0 empty empty empty 17 7 0 10 -262144 -1 -1 1
1;
#X obj 132 38 osc~ 441;
#X obj 132 142 *~;
#X msg 149 77 0.5;
#X msg 184 77 0.2;
#X msg 219 78 0;
#X msg 131 3 220;
#X msg 175 3 440;
#X msg 219 4 880;
#X msg 257 80;
#X connect 3 0 2 0;
#X connect 4 0 3 0;
#X connect 5 0 6 0;
#X connect 6 0 2 0;
#X connect 6 0 0 0;
#X connect 7 0 6 1;
#X connect 8 0 6 1;
#X connect 9 0 6 1;
#X connect 10 0 5 0;
#X connect 11 0 5 0;
#X coords 0 0 2 2 0 0 0;
