#N canvas 525 105 713 507 10;
#X msg 332 144 \; pd dsp \$1 \;;
#X obj 338 224 route 0 1;
#X obj 337 340 s audio_on_off;
#X obj 332 97 r audio_on_off;
#X obj 369 282 s volume;
#X obj 332 119 tgl 15 0 empty empty empty 17 7 0 10 -262144 -1 -1 0
1;
#X obj 41 22 phasor~ 440;
#X obj 73 116 r volume;
#X obj 73 138 / 100;
#X obj 75 162 pack 0 5;
#X obj 43 229 *~;
#X obj 43 251 dac~;
#X obj 71 188 line~;
#X obj 338 202 netreceive 3000;
#X connect 1 0 2 0;
#X connect 1 1 4 0;
#X connect 3 0 5 0;
#X connect 5 0 0 0;
#X connect 6 0 10 0;
#X connect 7 0 8 0;
#X connect 8 0 9 0;
#X connect 9 0 12 0;
#X connect 10 0 11 0;
#X connect 12 0 10 1;
#X connect 13 0 1 0;
