#N canvas 0 83 1264 726 10;
#X obj 101 100 midi_in;
#X obj 251 250 adsr;
#X obj 402 250 filter_module;
#X obj 552 250 mixer;
#X obj 252 100 oscillator_carrier_1;
#X obj 403 100 oscillator_carrier_2;
#X obj 551 100 oscillator_carrier_3;
#X obj 701 100 effects_module;
#X obj 1000 100 master_output;
#X connect 0 0 1 0;
#X connect 0 0 4 0;
#X connect 0 0 5 0;
#X connect 0 0 6 0;
#X connect 1 0 2 0;
#X connect 2 0 7 0;
#X connect 3 0 1 1;
#X connect 4 0 3 0;
#X connect 5 0 3 1;
#X connect 6 0 3 2;
#X connect 7 0 8 0;
#X coords 0 -1 1 1 1050 300 1 100 100;
