#N canvas 160 136 816 752 10;
#X obj 101 102 cnv 15 148 148 empty empty OSC_4 20 12 0 14 -128992
-66577 0;
#X obj 270 19 inlet;
#X obj 141 146 cnv 15 48 48 empty empty empty 20 12 0 14 -191407 -66577
0;
#N canvas 0 50 450 250 (subpatch) 0;
#X array \$0-display 441 float 3;
#A 0 0.820477 0.821473 0.822469 0.823465 0.824461 0.825442 0.826421
0.827399 0.828378 0.829356 0.830335 0.831313 0.832277 0.833238 0.834198
0.835159 0.83612 0.83708 0.838041 0.838987 0.83993 0.840873 0.841816
0.842758 0.843701 0.844644 0.845573 0.846497 0.847422 0.848347 0.849271
0.850196 0.851121 0.852032 0.852938 0.853845 0.854751 0.855657 0.856564
0.85747 0.858364 0.859252 0.86014 0.861028 0.861916 0.862804 0.863692
0.864567 0.865437 0.866307 0.867176 0.868046 0.868915 0.869785 0.870642
0.871493 0.872344 0.873195 0.874046 0.874897 0.875748 0.876587 0.877419
0.878251 0.879083 0.879916 0.880748 0.88158 0.882401 0.883214 0.884027
0.884841 0.885654 0.886467 0.887281 0.888083 0.888878 0.889672 0.890466
0.89126 0.892054 0.892849 0.893633 0.894408 0.895183 0.895958 0.896733
0.897509 0.898284 0.899049 0.899805 0.900561 0.901317 0.902073 0.902829
0.903585 0.904332 0.905068 0.905805 0.906541 0.907278 0.908014 0.908751
0.909479 0.910196 0.910913 0.91163 0.912347 0.913064 0.913781 0.91449
0.915188 0.915885 0.916583 0.91728 0.917977 0.918675 0.919365 0.920043
0.920721 0.921398 0.922076 0.922754 0.923432 0.924103 0.924761 0.925419
0.926077 0.926735 0.927393 0.928051 0.928703 0.929341 0.929979 0.930617
0.931255 0.931893 0.932531 0.933164 0.933782 0.9344 0.935018 0.935636
0.936254 0.936872 0.937486 0.938084 0.938682 0.93928 0.939878 0.940476
0.941074 0.941668 0.942246 0.942824 0.943401 0.943979 0.944557 0.945135
0.945709 0.946267 0.946824 0.947382 0.94794 0.948497 0.949055 0.94961
0.950147 0.950684 0.951221 0.951759 0.952296 0.952833 0.953368 0.953885
0.954402 0.954919 0.955436 0.955952 0.956469 0.956985 0.957481 0.957977
0.958474 0.95897 0.959466 0.959963 0.960458 0.960934 0.96141 0.961885
0.962361 0.962837 0.963313 0.963788 0.964243 0.964698 0.965154 0.965609
0.966064 0.966519 0.966974 0.967409 0.967843 0.968278 0.968712 0.969146
0.969581 0.970015 0.97043 0.970844 0.971257 0.971671 0.972085 0.972498
0.972912 0.973306 0.973699 0.974092 0.974485 0.974878 0.97527 0.975663
0.976037 0.976409 0.976781 0.977153 0.977525 0.977897 0.978269 0.978623
0.978974 0.979325 0.979676 0.980027 0.980377 0.980728 0.981062 0.981392
0.981722 0.982052 0.982382 0.982712 0.983042 0.983355 0.983664 0.983973
0.984282 0.98459 0.984899 0.985208 0.985501 0.985789 0.986077 0.986364
0.986652 0.98694 0.987228 0.9875 0.987767 0.988033 0.9883 0.988567
0.988833 0.9891 0.989352 0.989597 0.989843 0.990088 0.990333 0.990579
0.990824 0.991056 0.99128 0.991504 0.991728 0.991953 0.992177 0.992401
0.992612 0.992815 0.993018 0.993221 0.993424 0.993627 0.99383 0.99402
0.994201 0.994383 0.994565 0.994746 0.994928 0.99511 0.995279 0.995439
0.9956 0.99576 0.995921 0.996081 0.996241 0.99639 0.996529 0.996668
0.996807 0.996946 0.997085 0.997224 0.997352 0.99747 0.997588 0.997705
0.997823 0.997941 0.998058 0.998166 0.998262 0.998358 0.998455 0.998551
0.998647 0.998744 0.99883 0.998905 0.99898 0.999055 0.99913 0.999205
0.99928 0.999346 0.999399 0.999453 0.999506 0.99956 0.999613 0.999667
0.999712 0.999744 0.999776 0.999808 0.99984 0.999872 0.999904 0.999929
0.999939 0.99995 0.999961 0.999971 0.999982 0.999993 0.999996 0.999986
0.999975 0.999964 0.999954 0.999943 0.999932 0.999915 0.999883 0.999851
0.999819 0.999787 0.999754 0.999722 0.999685 0.999631 0.999577 0.999524
0.99947 0.999417 0.999363 0.999305 0.99923 0.999155 0.99908 0.999005
0.99893 0.998855 0.998776 0.998679 0.998583 0.998487 0.99839 0.998294
0.998198 0.998098 0.99798 0.997862 0.997745 0.997627 0.997509 0.997391
0.997271 0.997132 0.996993 0.996854 0.996714 0.996575 0.996436 0.996295
0.996134 0.995974 0.995814 0.995653 0.995493 0.995332 0.99517 0.994989
0.994807 0.994625 0.994443 0.994262 0.99408 0.993897 0.993694 0.993491
0.993288 0.993085 0.992882 0.992679 0.992476 0.992252 0.992027 0.991803
0.991579 0.991355 0.99113 0.990906 0.990661 0.990415 0.99017 0.989924
0.989679 0.989433 0.989188 0.988922 0.988655 0.988389 0.988122 0.987855
0.987589 0.987322;
#X coords 0 1 441 -1 50 50 1 0 0;
#X restore 140 145 graph;
#X obj 111 148 vradio 10 1 0 4 \$0-wave-send \$0-wave-recv W 0 -8 0
10 -99865 -1 -1 0;
#X obj 491 616 metro 100;
#X obj 492 567 tgl 15 0 empty empty empty 17 7 0 10 -262144 -1 -1 1
1;
#X obj 491 649 tabwrite~ \$0-display;
#X obj 412 595 *~ 1;
#X obj 413 659 outlet~;
#X obj 121 202 hsl 101 15 0 1 0 0 \$0-phase-send \$0-phase-recv Phase:0
3 7 0 10 -99865 -1 -1 0 1;
#X obj 121 225 hsl 100 15 0.01 0.99 0 0 \$0-pwm-send \$0-pwm-recv PWM:0.5
3 7 0 10 -99865 -1 -1 4950 1;
#N canvas 0 50 1088 607 send-recv 0;
#X obj 34 16 r \$0-pwm-send;
#X msg 34 46 label PWM:\$1;
#X obj 35 74 s \$0-pwm-recv;
#X obj 136 18 r \$0-phase-send;
#X msg 136 48 label Phase:\$1;
#X obj 137 76 s \$0-phase-recv;
#X connect 0 0 1 0;
#X connect 1 0 2 0;
#X connect 3 0 4 0;
#X connect 4 0 5 0;
#X restore 143 68 pd send-recv;
#X obj 42 18 loadbang;
#X msg 40 52 0.5;
#N canvas 0 50 1221 759 v 0;
#X obj 120 52 inlet;
#X floatatom 120 74 5 0 0 0 - - -, f 5;
#X obj 118 109 sel -1;
#X obj 141 220 f;
#X obj 192 185 delay 10;
#X floatatom 120 254 5 0 0 0 - - -, f 5;
#X obj 118 144 t f b;
#X obj 119 281 outlet;
#X connect 0 0 1 0;
#X connect 1 0 2 0;
#X connect 2 1 6 0;
#X connect 3 0 5 0;
#X connect 3 0 2 1;
#X connect 4 0 3 0;
#X connect 5 0 7 0;
#X connect 6 0 3 1;
#X connect 6 1 4 0;
#X restore 303 140 pd v;
#N canvas 1271 86 1360 726 oscillator 0;
#X obj 148 39 inlet note;
#X obj 517 38 inlet pbend;
#X obj 640 40 inlet amount;
#X obj 763 39 inlet phase;
#X obj 889 44 inlet pwm;
#X floatatom 148 61 5 0 0 0 - - -, f 5;
#X floatatom 517 60 5 0 0 0 - - -, f 5;
#X floatatom 640 62 5 0 0 0 - - -, f 5;
#X floatatom 763 61 5 0 0 0 - - -, f 5;
#X floatatom 889 66 5 0 0 0 - - -, f 5;
#X obj 42 41 inlet wave;
#X floatatom 42 63 5 0 0 0 - - -, f 5;
#N canvas 0 53 1150 694 sine 0;
#X obj 120 19 inlet phase;
#X obj 34 90 osc~;
#X obj 30 236 outlet~;
#X floatatom 121 53 5 0 0 0 - - -, f 5;
#X obj 35 19 inlet freq;
#X obj 35 41 pack f 50;
#X obj 35 63 line~;
#X connect 0 0 3 0;
#X connect 1 0 2 0;
#X connect 3 0 1 1;
#X connect 4 0 5 0;
#X connect 5 0 6 0;
#X connect 6 0 1 0;
#X restore 614 194 pd sine;
#N canvas 82 531 984 489 triangle 0;
#X obj 197 40 inlet phase;
#X obj 163 99 phasor~;
#X obj 74 108 phasor~;
#X obj 74 138 clip~ 0 0.5;
#X obj 74 199 +~;
#X obj 74 221 *~ 4;
#X obj 74 287 outlet~;
#X obj 163 143 +~ 1;
#X obj 163 165 clip~ 0 0.5;
#X obj 163 121 *~ -1;
#X obj 74 243 -~ 3;
#X obj 74 29 inlet freq;
#X obj 74 51 pack f 50;
#X obj 74 73 line~;
#X connect 0 0 1 1;
#X connect 0 0 2 1;
#X connect 1 0 9 0;
#X connect 2 0 3 0;
#X connect 3 0 4 0;
#X connect 4 0 5 0;
#X connect 5 0 10 0;
#X connect 7 0 8 0;
#X connect 8 0 4 1;
#X connect 9 0 7 0;
#X connect 10 0 6 0;
#X connect 11 0 12 0;
#X connect 12 0 13 0;
#X connect 13 0 2 0;
#X connect 13 0 1 0;
#X restore 701 195 pd triangle;
#N canvas 190 50 934 926 pulse 0;
#X obj 11 98 phasor~;
#X obj 13 153 *~ 2;
#X obj 12 180 -~ 1;
#X obj 108 95 line~;
#X obj 108 68 pack f 50;
#X obj 13 218 outlet~;
#X obj 84 12 inlet phase;
#X obj 173 13 inlet pwm;
#X floatatom 86 48 5 0 0 0 - - -, f 5;
#X obj 11 124 expr~ $v1 > $v2;
#X obj 10 14 inlet freq;
#X obj 10 36 pack f 50;
#X obj 10 58 line~;
#X connect 0 0 9 0;
#X connect 1 0 2 0;
#X connect 2 0 5 0;
#X connect 3 0 9 1;
#X connect 4 0 3 0;
#X connect 6 0 8 0;
#X connect 7 0 4 0;
#X connect 8 0 0 1;
#X connect 9 0 1 0;
#X connect 10 0 11 0;
#X connect 11 0 12 0;
#X connect 12 0 0 0;
#X restore 784 195 pd pulse;
#N canvas 0 50 1022 640 sawtooth 0;
#X obj 46 110 phasor~;
#X obj 46 133 *~ -1;
#X obj 47 151 *~ 2;
#X obj 46 170 +~ 1;
#X obj 47 18 inlet note;
#X obj 47 224 outlet~;
#X obj 128 33 inlet phase;
#X floatatom 120 65 5 0 0 0 - - -, f 5;
#X obj 47 40 pack f 50;
#X obj 47 62 line~;
#X connect 0 0 1 0;
#X connect 1 0 2 0;
#X connect 2 0 3 0;
#X connect 3 0 5 0;
#X connect 4 0 8 0;
#X connect 6 0 7 0;
#X connect 7 0 0 1;
#X connect 8 0 9 0;
#X connect 9 0 0 0;
#X restore 877 173 pd sawtooth;
#X obj 623 279 *~;
#X obj 641 240 pack f 50;
#X obj 641 257 line~;
#X obj 710 276 *~;
#X obj 728 237 pack f 50;
#X obj 728 254 line~;
#X obj 794 279 *~;
#X obj 812 239 pack f 50;
#X obj 812 256 line~;
#X obj 877 281 *~;
#X obj 895 241 pack f 50;
#X obj 895 258 line~;
#X msg 71 453 1;
#X msg 70 476 0;
#X msg 70 501 0;
#X msg 70 523 0;
#X msg 115 501 0;
#X msg 115 524 0;
#X msg 117 453 0;
#X msg 116 477 1;
#X msg 238 522 1;
#X msg 173 500 1;
#X msg 171 475 0;
#X msg 240 473 0;
#X msg 173 452 0;
#X msg 242 451 0;
#X msg 172 523 0;
#X msg 239 500 0;
#X obj 45 159 sel 0 1 2 3;
#X obj 16 208 t b b b b;
#X obj 78 238 t b b b b;
#X obj 134 267 t b b b b;
#X obj 193 297 t b b b b;
#X obj 544 581 outlet~;
#X obj 238 42 inlet octave;
#X floatatom 238 64 5 0 0 0 - - -, f 5;
#X floatatom 332 60 5 0 0 0 - - -, f 5;
#X obj 332 37 inlet semi;
#X floatatom 419 61 5 0 0 0 - - -, f 5;
#X obj 419 38 inlet cents;
#N canvas 1272 50 1360 726 pitch_bending_and_detuning 0;
#X obj 47 39 inlet note;
#X obj 491 46 inlet pbend;
#X obj 620 50 inlet amount;
#X floatatom 47 61 5 0 0 0 - - -, f 5;
#X floatatom 491 68 5 0 0 0 - - -, f 5;
#X floatatom 620 72 5 0 0 0 - - -, f 5;
#X obj 491 87 - 8192;
#X obj 23 145 - 12;
#X obj 86 147 + 12;
#X floatatom 51 182 5 0 0 2 Same - -, f 5;
#X floatatom 89 187 5 0 0 2 Up - -, f 5;
#X floatatom 16 181 5 0 0 2 Down - -, f 5;
#X obj 16 200 mtof;
#X obj 51 201 mtof;
#X obj 89 206 mtof;
#X obj 16 277 nbx 5 14 -1e+037 1e+037 0 0 empty empty empty 0 -8 0
10 -262144 -1 -1 6.12493 256;
#X obj 83 275 nbx 5 14 -1e+037 1e+037 0 0 empty empty empty 0 -8 0
10 -262144 -1 -1 24.4997 256;
#X obj 111 303 t b f;
#X obj 25 322 -;
#X obj 111 325 -;
#X obj 20 352 nbx 5 14 -1e+037 1e+037 0 0 empty empty empty 0 -8 0
10 -262144 -1 -1 -6.12493 256;
#X obj 106 356 nbx 5 14 -1e+037 1e+037 0 0 empty empty empty 0 -8 0
10 -262144 -1 -1 12.2499 256;
#X floatatom 491 109 5 0 0 0 - - -, f 5;
#X obj 491 128 moses 0;
#X obj 465 161 t f b b;
#X obj 548 161 t f b b;
#X msg 484 189 0;
#X msg 568 191 0;
#X msg 608 214 1;
#X msg 504 214 1;
#X obj 555 231 sel 0;
#X msg 555 255 -0;
#X floatatom 597 283 5 0 0 0 - - -, f 5;
#X floatatom 504 286 5 0 0 0 - - -, f 5;
#X obj 503 306 / 8192;
#X obj 597 302 / 8191;
#X obj 596 327 nbx 5 14 -1e+037 1e+037 0 0 empty empty empty 0 -8 0
10 -262144 -1 -1 0 256;
#X obj 505 331 nbx 5 14 -1e+037 1e+037 0 0 empty empty empty 0 -8 0
10 -262144 -1 -1 0 256;
#X obj 34 299 t b f, f 7;
#X obj 42 380 t b f;
#X obj 26 414 *;
#X obj 26 441 nbx 5 14 -1e+037 1e+037 0 0 empty empty empty 0 -8 0
10 -262144 -1 -1 0 256;
#X obj 124 382 t b f;
#X obj 110 408 *;
#X obj 110 444 nbx 5 14 -1e+037 1e+037 0 0 empty empty empty 0 -8 0
10 -262144 -1 -1 0 256;
#X obj 35 466 t b f;
#X obj 18 526 nbx 5 14 -1e+037 1e+037 0 0 empty empty empty 0 -8 0
10 -262144 -1 -1 12.2499 256;
#X obj 117 468 t b f;
#X obj 105 523 nbx 5 14 -1e+037 1e+037 0 0 empty empty empty 0 -8 0
10 -262144 -1 -1 12.2499 256;
#X obj 105 493 +;
#X obj 22 499 -;
#X obj 18 545 spigot 1;
#X obj 104 546 spigot 1;
#X obj 23 610 outlet;
#X obj 145 42 inlet octave;
#X obj 345 47 inlet cents;
#X obj 244 43 inlet semi;
#X floatatom 145 64 5 0 0 0 - - -, f 5;
#X obj 145 83 * 12;
#X floatatom 145 105 5 0 0 0 - - -, f 5;
#X floatatom 145 146 5 0 0 0 - - -, f 5;
#X obj 145 165 t b f;
#X obj 47 80 +;
#X floatatom 38 109 5 0 0 0 - - -, f 5;
#X floatatom 244 65 5 0 0 0 - - -, f 5;
#X obj 244 84 t b f;
#X floatatom 345 69 5 0 0 0 - - -, f 5;
#X obj 345 88 * 0.01;
#X floatatom 405 199 5 0 0 0 - - -, f 5;
#X obj 405 218 mtof;
#X floatatom 405 240 5 0 0 0 - - -, f 5;
#X obj 405 177 + 1;
#X floatatom 350 145 5 0 0 0 - - -, f 5;
#X obj 350 180 mtof;
#X floatatom 349 219 5 0 0 0 - - -, f 5;
#X obj 431 308 t b f;
#X obj 422 359 -;
#X floatatom 410 411 5 0 0 0 - - -, f 5;
#X obj 431 461 *;
#X floatatom 431 488 5 0 0 0 - - -, f 5;
#X obj 431 507 t b f;
#X floatatom 302 476 5 0 0 0 - - -, f 5;
#X obj 302 495 t b f;
#X obj 307 552 +;
#X obj 51 228 nbx 5 14 -1e+037 1e+037 0 0 empty empty empty 0 -8 0
10 -262144 -1 -1 12.2499 256;
#X floatatom 60 252 5 0 0 0 - - -, f 5;
#X obj 144 127 + 0;
#X obj 345 119 moses 0;
#X floatatom 282 202 5 0 0 0 - - -, f 5;
#X obj 282 221 mtof;
#X floatatom 282 243 5 0 0 0 - - -, f 5;
#X obj 342 309 t b f;
#X floatatom 321 412 5 0 0 0 - - -, f 5;
#X obj 302 451 *;
#X obj 282 180 - 1;
#X obj 334 376 -;
#X connect 0 0 3 0;
#X connect 1 0 4 0;
#X connect 2 0 5 0;
#X connect 3 0 62 0;
#X connect 4 0 6 0;
#X connect 5 0 7 1;
#X connect 5 0 8 1;
#X connect 6 0 22 0;
#X connect 7 0 11 0;
#X connect 8 0 10 0;
#X connect 9 0 13 0;
#X connect 10 0 14 0;
#X connect 11 0 12 0;
#X connect 12 0 15 0;
#X connect 13 0 84 0;
#X connect 14 0 16 0;
#X connect 15 0 18 0;
#X connect 16 0 19 0;
#X connect 17 0 19 0;
#X connect 17 1 19 1;
#X connect 18 0 20 0;
#X connect 19 0 21 0;
#X connect 20 0 40 0;
#X connect 21 0 43 0;
#X connect 22 0 23 0;
#X connect 23 0 24 0;
#X connect 23 1 25 0;
#X connect 24 0 33 0;
#X connect 24 1 26 0;
#X connect 24 2 29 0;
#X connect 25 0 30 0;
#X connect 25 0 32 0;
#X connect 25 1 27 0;
#X connect 25 2 28 0;
#X connect 26 0 52 1;
#X connect 27 0 51 1;
#X connect 28 0 52 1;
#X connect 29 0 51 1;
#X connect 30 0 31 0;
#X connect 31 0 33 0;
#X connect 32 0 35 0;
#X connect 33 0 34 0;
#X connect 34 0 37 0;
#X connect 35 0 36 0;
#X connect 36 0 42 0;
#X connect 37 0 39 0;
#X connect 38 0 18 0;
#X connect 38 1 18 1;
#X connect 39 0 40 0;
#X connect 39 1 40 1;
#X connect 40 0 41 0;
#X connect 41 0 45 0;
#X connect 42 0 43 0;
#X connect 42 1 43 1;
#X connect 43 0 44 0;
#X connect 44 0 47 0;
#X connect 45 0 50 0;
#X connect 45 1 50 1;
#X connect 46 0 51 0;
#X connect 47 0 49 0;
#X connect 47 1 49 1;
#X connect 48 0 52 0;
#X connect 49 0 48 0;
#X connect 50 0 46 0;
#X connect 51 0 53 0;
#X connect 52 0 53 0;
#X connect 54 0 57 0;
#X connect 55 0 66 0;
#X connect 56 0 64 0;
#X connect 57 0 58 0;
#X connect 58 0 59 0;
#X connect 59 0 86 0;
#X connect 60 0 61 0;
#X connect 61 0 62 0;
#X connect 61 1 62 1;
#X connect 62 0 63 0;
#X connect 63 0 7 0;
#X connect 63 0 8 0;
#X connect 63 0 9 0;
#X connect 63 0 72 0;
#X connect 64 0 65 0;
#X connect 65 0 86 0;
#X connect 65 1 86 1;
#X connect 66 0 67 0;
#X connect 67 0 87 0;
#X connect 68 0 69 0;
#X connect 69 0 70 0;
#X connect 70 0 76 0;
#X connect 71 0 68 0;
#X connect 72 0 73 0;
#X connect 72 0 71 0;
#X connect 72 0 94 0;
#X connect 73 0 74 0;
#X connect 74 0 75 0;
#X connect 74 0 95 0;
#X connect 75 0 76 0;
#X connect 75 1 76 1;
#X connect 76 0 77 0;
#X connect 77 0 78 1;
#X connect 78 0 79 0;
#X connect 79 0 80 0;
#X connect 80 0 83 0;
#X connect 80 1 83 1;
#X connect 81 0 82 0;
#X connect 82 0 83 0;
#X connect 82 1 83 1;
#X connect 83 0 85 0;
#X connect 84 0 83 0;
#X connect 85 0 38 0;
#X connect 85 0 17 0;
#X connect 85 0 49 0;
#X connect 85 0 50 0;
#X connect 86 0 60 0;
#X connect 87 0 93 0;
#X connect 87 1 78 0;
#X connect 88 0 89 0;
#X connect 89 0 90 0;
#X connect 90 0 91 0;
#X connect 91 0 95 0;
#X connect 91 1 95 1;
#X connect 92 0 93 1;
#X connect 93 0 81 0;
#X connect 94 0 88 0;
#X connect 95 0 92 0;
#X restore 307 123 pd pitch_bending_and_detuning;
#X connect 0 0 5 0;
#X connect 1 0 6 0;
#X connect 2 0 7 0;
#X connect 3 0 8 0;
#X connect 4 0 9 0;
#X connect 5 0 56 0;
#X connect 6 0 56 4;
#X connect 7 0 56 5;
#X connect 8 0 12 1;
#X connect 8 0 13 1;
#X connect 8 0 14 1;
#X connect 8 0 15 1;
#X connect 9 0 14 2;
#X connect 10 0 11 0;
#X connect 11 0 44 0;
#X connect 12 0 16 0;
#X connect 13 0 19 0;
#X connect 14 0 22 0;
#X connect 15 0 25 0;
#X connect 16 0 49 0;
#X connect 17 0 18 0;
#X connect 18 0 16 1;
#X connect 19 0 49 0;
#X connect 20 0 21 0;
#X connect 21 0 19 1;
#X connect 22 0 49 0;
#X connect 23 0 24 0;
#X connect 24 0 22 1;
#X connect 25 0 49 0;
#X connect 26 0 27 0;
#X connect 27 0 25 1;
#X connect 28 0 17 0;
#X connect 29 0 20 0;
#X connect 30 0 23 0;
#X connect 31 0 26 0;
#X connect 32 0 23 0;
#X connect 33 0 26 0;
#X connect 34 0 17 0;
#X connect 35 0 20 0;
#X connect 36 0 26 0;
#X connect 37 0 23 0;
#X connect 38 0 20 0;
#X connect 39 0 20 0;
#X connect 40 0 17 0;
#X connect 41 0 17 0;
#X connect 42 0 26 0;
#X connect 43 0 23 0;
#X connect 44 0 45 0;
#X connect 44 1 46 0;
#X connect 44 2 47 0;
#X connect 44 3 48 0;
#X connect 45 0 28 0;
#X connect 45 1 29 0;
#X connect 45 2 30 0;
#X connect 45 3 31 0;
#X connect 46 0 34 0;
#X connect 46 1 35 0;
#X connect 46 2 32 0;
#X connect 46 3 33 0;
#X connect 47 0 40 0;
#X connect 47 1 38 0;
#X connect 47 2 37 0;
#X connect 47 3 42 0;
#X connect 48 0 41 0;
#X connect 48 1 39 0;
#X connect 48 2 43 0;
#X connect 48 3 36 0;
#X connect 50 0 51 0;
#X connect 51 0 56 1;
#X connect 52 0 56 2;
#X connect 53 0 52 0;
#X connect 54 0 56 3;
#X connect 55 0 54 0;
#X connect 56 0 15 0;
#X connect 56 0 12 0;
#X connect 56 0 13 0;
#X connect 56 0 14 0;
#X restore 378 403 pd oscillator selector;
#N canvas 0 50 1221 759 v 0;
#X obj 120 52 inlet;
#X floatatom 120 74 5 0 0 0 - - -, f 5;
#X obj 118 109 sel -1;
#X obj 141 220 f;
#X obj 192 185 delay 10;
#X floatatom 120 254 5 0 0 0 - - -, f 5;
#X obj 118 144 t f b;
#X obj 119 281 outlet;
#X connect 0 0 1 0;
#X connect 1 0 2 0;
#X connect 2 1 6 0;
#X connect 3 0 5 0;
#X connect 3 0 2 1;
#X connect 4 0 3 0;
#X connect 5 0 7 0;
#X connect 6 0 3 1;
#X connect 6 1 4 0;
#X restore 342 141 pd v;
#N canvas 0 50 1221 759 v 0;
#X obj 120 52 inlet;
#X floatatom 120 74 5 0 0 0 - - -, f 5;
#X obj 118 109 sel -1;
#X obj 141 220 f;
#X obj 192 185 delay 10;
#X floatatom 120 254 5 0 0 0 - - -, f 5;
#X obj 118 144 t f b;
#X obj 119 281 outlet;
#X connect 0 0 1 0;
#X connect 1 0 2 0;
#X connect 2 1 6 0;
#X connect 3 0 5 0;
#X connect 3 0 2 1;
#X connect 4 0 3 0;
#X connect 5 0 7 0;
#X connect 6 0 3 1;
#X connect 6 1 4 0;
#X restore 378 143 pd v;
#X obj 270 37 unpack f f f f f;
#X obj 450 190 / 127;
#X obj 446 215 sel 0 1;
#X msg 450 250 0.01;
#X floatatom 449 278 5 0 0 0 - - -, f 5;
#X obj 450 298 spigot 0;
#X msg 521 273 \$1;
#X msg 499 244 0.99;
#X floatatom 199 147 2 0 0 2 Oct - -, f 2;
#X floatatom 222 147 2 0 0 2 Semi - -, f 2;
#X floatatom 200 175 2 0 0 2 Cents - -, f 2;
#N canvas 0 50 1221 759 v 0;
#X obj 120 52 inlet;
#X floatatom 120 74 5 0 0 0 - - -, f 5;
#X obj 118 109 sel -1;
#X obj 141 220 f;
#X obj 192 185 delay 10;
#X floatatom 120 254 5 0 0 0 - - -, f 5;
#X obj 118 144 t f b;
#X obj 119 281 outlet;
#X connect 0 0 1 0;
#X connect 1 0 2 0;
#X connect 2 1 6 0;
#X connect 3 0 5 0;
#X connect 3 0 2 1;
#X connect 4 0 3 0;
#X connect 5 0 7 0;
#X connect 6 0 3 1;
#X connect 6 1 4 0;
#X restore 425 144 pd v;
#X obj 223 174 tgl 15 0 empty empty empty 17 7 0 10 -66577 -1 -1 0
1;
#X obj 101 101 cnv 15 148 25 empty empty Oscillator_3 10 12 0 18 -1
-191407 0;
#X msg 110 53 7;
#X msg 10 57 1;
#X msg 69 52 3;
#X connect 1 0 19 0;
#X connect 4 0 16 0;
#X connect 5 0 7 0;
#X connect 6 0 5 0;
#X connect 8 0 7 0;
#X connect 8 0 9 0;
#X connect 10 0 16 7;
#X connect 11 0 16 8;
#X connect 13 0 14 0;
#X connect 13 0 35 0;
#X connect 13 0 34 0;
#X connect 13 0 33 0;
#X connect 14 0 11 0;
#X connect 15 0 16 1;
#X connect 16 0 8 0;
#X connect 17 0 16 5;
#X connect 18 0 16 6;
#X connect 19 0 15 0;
#X connect 19 2 17 0;
#X connect 19 3 18 0;
#X connect 19 4 30 0;
#X connect 20 0 21 0;
#X connect 21 0 22 0;
#X connect 21 1 26 0;
#X connect 21 2 23 0;
#X connect 22 0 23 0;
#X connect 23 0 24 0;
#X connect 24 0 11 0;
#X connect 25 0 24 1;
#X connect 26 0 23 0;
#X connect 27 0 16 2;
#X connect 28 0 16 3;
#X connect 29 0 16 4;
#X connect 30 0 20 0;
#X connect 31 0 23 0;
#X connect 33 0 28 0;
#X connect 34 0 6 0;
#X connect 35 0 10 0;
#X connect 35 0 4 0;
#X coords 0 -1 1 1 150 150 1 100 100;
